<svg width="150" height="50" viewBox="0 0 899 338" fill="none" xmlns="http://www.w3.org/2000/svg">
<path d="M407.053 238.53C407.053 239.403 407.377 240.037 408.026 240.432C408.674 240.911 410.054 241.404 412.168 241.911C414.394 242.447 416.014 243.179 417.029 244.109C418.071 245.039 418.593 246.378 418.593 248.125C418.593 249.956 417.902 251.436 416.521 252.563C415.169 253.69 413.394 254.254 411.196 254.254C408.012 254.254 405.137 253.126 402.573 250.872L404.771 248.252C406.913 250.083 409.082 250.999 411.28 250.999C412.379 250.999 413.267 250.759 413.943 250.28C414.619 249.773 414.958 249.125 414.958 248.336C414.958 247.547 414.648 246.927 414.028 246.476C413.436 246.025 412.365 245.617 410.815 245.251C408.138 244.631 406.279 243.898 405.236 243.053C404.024 242.123 403.418 240.7 403.418 238.784C403.418 236.924 404.095 235.473 405.447 234.43C406.8 233.359 408.533 232.824 410.646 232.824C413.492 232.824 415.93 233.655 417.959 235.318L416.099 237.938C415.479 237.375 414.648 236.924 413.605 236.586C412.562 236.219 411.534 236.036 410.519 236.036C409.477 236.036 408.631 236.262 407.983 236.712C407.363 237.135 407.053 237.741 407.053 238.53ZM438.692 233.331V236.586H427.66V242.08H437.551V245.166H427.66V250.703H439.03V254H424.152V233.331H438.692ZM459.05 243.94H462.516V250.999C460.571 253.169 457.782 254.254 454.147 254.254C451.075 254.254 448.511 253.239 446.454 251.21C444.397 249.181 443.368 246.645 443.368 243.602C443.368 240.559 444.411 238.009 446.496 235.952C448.609 233.866 451.16 232.824 454.147 232.824C457.134 232.824 459.613 233.683 461.586 235.402L459.726 238.065C458.289 236.853 456.528 236.247 454.442 236.247C452.329 236.247 450.554 236.938 449.117 238.319C447.708 239.671 447.003 241.432 447.003 243.602C447.003 245.772 447.68 247.533 449.032 248.886C450.413 250.21 452.118 250.872 454.147 250.872C456.119 250.872 457.753 250.449 459.05 249.604V243.94ZM476.869 250.914C478.475 250.914 479.743 250.365 480.673 249.266C481.631 248.167 482.11 246.674 482.11 244.786V233.331H485.618V244.912C485.618 247.843 484.815 250.125 483.209 251.76C481.603 253.394 479.489 254.211 476.869 254.211C474.248 254.211 472.135 253.394 470.528 251.76C468.922 250.125 468.119 247.843 468.119 244.912V233.331H471.585V244.786C471.585 246.702 472.064 248.195 473.022 249.266C473.952 250.365 475.234 250.914 476.869 250.914ZM504.391 246.476L509.802 254H505.363L500.418 247.026H495.853V254H492.345V233.331H500.038C503.165 233.331 505.406 233.866 506.758 234.937C508.139 235.98 508.829 237.685 508.829 240.052C508.829 243.461 507.35 245.603 504.391 246.476ZM500.164 243.898C502.109 243.898 503.447 243.602 504.18 243.01C504.913 242.419 505.279 241.418 505.279 240.009C505.279 238.657 504.913 237.741 504.18 237.262C503.447 236.755 502.137 236.501 500.249 236.501H495.853V243.898H500.164ZM515.116 233.331H518.624V254H515.116V233.331ZM532.656 233.331C536.347 233.331 539.193 234.233 541.194 236.036C543.195 237.811 544.195 240.319 544.195 243.56C544.195 246.857 543.209 249.421 541.236 251.253C539.264 253.084 536.319 254 532.402 254H525.555V233.331H532.656ZM532.529 236.543H529.063V250.703H532.91C535.446 250.703 537.376 250.111 538.7 248.928C540.025 247.716 540.687 245.955 540.687 243.644C540.687 238.91 537.968 236.543 532.529 236.543ZM552.804 249.308L550.733 254H547.013L556.143 233.331H559.863L568.95 254H565.231L563.16 249.308H552.804ZM561.765 246.054L558.003 237.558L554.241 246.054H561.765ZM580.16 233.331C583.851 233.331 586.697 234.233 588.698 236.036C590.699 237.811 591.699 240.319 591.699 243.56C591.699 246.857 590.713 249.421 588.74 251.253C586.768 253.084 583.823 254 579.906 254H573.059V233.331H580.16ZM580.033 236.543H576.567V250.703H580.413C582.95 250.703 584.88 250.111 586.204 248.928C587.529 247.716 588.191 245.955 588.191 243.644C588.191 238.91 585.472 236.543 580.033 236.543ZM614.865 254H611.314V245.842L603.621 233.331H607.468L613.089 242.714L618.753 233.331H622.558L614.865 245.842V254ZM642.262 248.209L646.869 233.331H649.997L654.604 248.209L659.803 233.331H663.565L656.337 254H652.872L648.56 239.84H648.307L643.953 254H640.487L633.259 233.331H637.021L642.262 248.209ZM682.596 233.331V236.586H671.564V242.08H681.454V245.166H671.564V250.703H682.934V254H668.056V233.331H682.596ZM688.624 254V233.331H696.655C699.558 233.331 701.53 233.951 702.573 235.191C703.503 236.233 703.968 237.431 703.968 238.784C703.968 240.418 703.46 241.63 702.446 242.419C702.108 242.672 701.601 242.954 700.924 243.264C702.221 243.546 703.235 244.123 703.968 244.997C704.728 245.87 705.109 246.955 705.109 248.252C705.109 249.886 704.517 251.253 703.334 252.352C702.178 253.451 700.29 254 697.67 254H688.624ZM692.133 241.911H696.528C699.065 241.911 700.333 241.052 700.333 239.333C700.333 238.347 700.023 237.642 699.403 237.22C698.811 236.769 697.867 236.543 696.571 236.543H692.133V241.911ZM692.133 250.788H697.585C698.938 250.788 699.938 250.576 700.586 250.154C701.234 249.703 701.558 248.942 701.558 247.871C701.558 246.04 700.093 245.124 697.162 245.124H692.133V250.788Z" fill="black"/>
<g filter="url(#filter0_d_171_40)">
<path d="M314.629 110.536C314.629 114.797 316.21 117.89 319.371 119.814C322.533 122.151 329.268 124.557 339.577 127.031C350.436 129.643 358.34 133.216 363.289 137.753C368.375 142.289 370.918 148.818 370.918 157.34C370.918 166.275 367.55 173.491 360.814 178.99C354.216 184.488 345.557 187.237 334.835 187.237C319.302 187.237 305.282 181.739 292.773 170.742L303.495 157.959C313.942 166.893 324.526 171.361 335.247 171.361C340.608 171.361 344.938 170.192 348.237 167.856C351.536 165.381 353.186 162.22 353.186 158.371C353.186 154.522 351.674 151.498 348.649 149.299C345.763 147.1 340.54 145.107 332.979 143.32C319.921 140.296 310.849 136.722 305.763 132.598C299.852 128.062 296.897 121.12 296.897 111.773C296.897 102.701 300.196 95.622 306.794 90.5361C313.392 85.3127 321.845 82.701 332.155 82.701C346.038 82.701 357.928 86.756 367.825 94.866L358.753 107.649C355.729 104.9 351.674 102.701 346.588 101.052C341.502 99.2646 336.485 98.3711 331.536 98.3711C326.45 98.3711 322.326 99.4708 319.165 101.67C316.141 103.732 314.629 106.687 314.629 110.536ZM399.263 163.113L389.16 186H371.016L415.552 85.1753H433.696L478.026 186H459.882L449.779 163.113H399.263ZM442.974 147.237L424.624 105.794L406.273 147.237H442.974ZM543.83 149.299L570.222 186H548.573L524.449 151.979H502.181V186H485.067V85.1753H522.593C537.851 85.1753 548.779 87.7869 555.377 93.0103C562.112 98.0962 565.48 106.412 565.48 117.959C565.48 134.591 558.263 145.038 543.83 149.299ZM523.212 136.722C532.696 136.722 539.226 135.278 542.799 132.392C546.373 129.505 548.16 124.625 548.16 117.753C548.16 111.155 546.373 106.687 542.799 104.351C539.226 101.876 532.834 100.639 523.624 100.639H502.181V136.722H523.212ZM617.785 85.1753C632.905 85.1753 643.97 88.1306 650.981 94.0412C658.128 99.8144 661.702 108.818 661.702 121.052C661.702 133.148 658.128 142.082 650.981 147.856C643.833 153.491 632.836 156.309 617.991 156.309H600.259V186H583.146V85.1753H617.785ZM619.847 141.052C628.919 141.052 635.242 139.333 638.816 135.897C642.527 132.46 644.383 127.031 644.383 119.608C644.383 112.735 642.252 107.856 637.991 104.969C633.73 102.082 626.857 100.639 617.372 100.639H600.259V141.052H619.847ZM674.974 85.1753H692.087V186H674.974V85.1753ZM788.566 85.1753H805.473V186H787.122L730.009 112.392V186H712.896V85.1753H730.009L788.566 160.433V85.1753Z" fill="black"/>
</g>
<g filter="url(#filter1_d_171_40)">
<path fill-rule="evenodd" clip-rule="evenodd" d="M134.271 150.179L127.044 135.912L217.691 89.9944L248.58 150.974L225.403 162.714L210.751 133.79C210.865 133.598 210.975 133.405 211.081 133.209C215.076 125.834 211.578 118.929 203.268 117.786C194.959 116.643 184.985 121.696 180.99 129.071C177.385 135.728 179.883 142.002 186.514 144.001L217.59 205.349L207.682 210.368L199.208 193.639C196.941 189.165 189.865 188.192 183.402 191.465C176.939 194.739 173.537 201.02 175.803 205.495L184.277 222.224L129.601 249.92L98.5557 188.631L119.075 178.238L133.927 207.558C130.927 214.462 134.483 220.685 142.333 221.765C150.643 222.907 160.617 217.855 164.612 210.48C168.57 203.17 165.17 196.322 157.02 195.088L142.479 166.382L152.916 161.095L158.269 171.662C160.535 176.136 167.612 177.11 174.075 173.836C180.538 170.562 183.94 164.281 181.673 159.807L172.332 141.365C171.004 138.744 168.026 137.325 164.487 137.256C161.853 137.103 158.867 137.72 156.002 139.171L134.271 150.179ZM116.759 273.755C113.808 273.399 111.389 272.026 110.23 269.737L71.0859 192.461C69.455 189.242 70.7591 185.087 74.0266 181.79C75.3315 180.429 76.9673 179.206 78.8678 178.244L110.867 162.035L99.6059 139.804C98.4548 137.531 98.7658 134.793 100.197 132.219C101.559 129.636 104.052 127.198 107.334 125.535L221.075 67.9197C224.98 65.9417 229.109 65.5141 232.265 66.4722C234.41 67.0844 236.124 68.3242 237.045 70.1416L276.189 147.417C277.984 150.961 276.223 155.638 272.203 159.057L272.328 159.305L271.072 159.941C270.307 160.491 269.477 160.997 268.59 161.447C267.703 161.896 266.804 162.266 265.908 162.557L233.611 178.917L245.064 201.529C245.575 202.536 245.798 203.634 245.763 204.77C245.688 208.7 242.508 213.087 237.464 215.643L126.311 271.947C123.051 273.598 119.635 274.169 116.759 273.755Z" fill="#00C2FF"/>
<circle r="6.17826" transform="matrix(1.03777 -0.524446 0.362337 0.718824 149.591 208.41)" fill="black" stroke="white" stroke-width="5"/>
<circle r="6.17826" transform="matrix(1.03777 -0.524446 0.362337 0.718824 196.047 131.166)" fill="white" stroke="black" stroke-width="5"/>
</g>
<defs>
<filter id="filter0_d_171_40" x="288.773" y="82.7009" width="520.7" height="112.536" filterUnits="userSpaceOnUse" color-interpolation-filters="sRGB">
<feFlood flood-opacity="0" result="BackgroundImageFix"/>
<feColorMatrix in="SourceAlpha" type="matrix" values="0 0 0 0 0 0 0 0 0 0 0 0 0 0 0 0 0 0 127 0" result="hardAlpha"/>
<feOffset dy="4"/>
<feGaussianBlur stdDeviation="2"/>
<feColorMatrix type="matrix" values="0 0 0 0 0 0 0 0 0 0 0 0 0 0 0 0 0 0 0.25 0"/>
<feBlend mode="normal" in2="BackgroundImageFix" result="effect1_dropShadow_171_40"/>
<feBlend mode="normal" in="SourceGraphic" in2="effect1_dropShadow_171_40" result="shape"/>
</filter>
<filter id="filter1_d_171_40" x="66.3838" y="65.9819" width="214.507" height="218.903" filterUnits="userSpaceOnUse" color-interpolation-filters="sRGB">
<feFlood flood-opacity="0" result="BackgroundImageFix"/>
<feColorMatrix in="SourceAlpha" type="matrix" values="0 0 0 0 0 0 0 0 0 0 0 0 0 0 0 0 0 0 127 0" result="hardAlpha"/>
<feOffset dy="7"/>
<feGaussianBlur stdDeviation="2"/>
<feComposite in2="hardAlpha" operator="out"/>
<feColorMatrix type="matrix" values="0 0 0 0 0 0 0 0 0 0 0 0 0 0 0 0 0 0 0.54 0"/>
<feBlend mode="normal" in2="BackgroundImageFix" result="effect1_dropShadow_171_40"/>
<feBlend mode="normal" in="SourceGraphic" in2="effect1_dropShadow_171_40" result="shape"/>
</filter>
</defs>
</svg>
