<svg width="150" height="50" viewBox="0 0 150 50" fill="none" xmlns="http://www.w3.org/2000/svg">
<g clip-path="url(#clip0_68_3)">
<path fill-rule="evenodd" clip-rule="evenodd" d="M15.0672 22.1995L12.3136 19.4459L24.4331 7.32637L36.2309 19.1241L33.2159 22.1391C33.1878 22.1672 33.1607 22.1958 33.1344 22.2249L27.5252 16.6157C27.5271 16.5719 27.528 16.5279 27.528 16.4837C27.528 14.8389 26.1946 13.5054 24.5498 13.5054C22.9049 13.5054 21.5715 14.8389 21.5715 16.4837C21.5715 17.9674 22.6565 19.1978 24.0763 19.4246L35.9246 31.2729L34.6003 32.5972L31.3686 29.3655C30.5046 28.5015 29.1037 28.5015 28.2397 29.3655C27.3757 30.2295 27.3757 31.6304 28.2397 32.4944L31.4714 35.7261L24.162 43.0356L12.3254 31.199L15.0672 28.4572L20.7306 34.1207C20.8683 35.6378 22.1436 36.8264 23.6966 36.8264C25.3414 36.8264 26.6749 35.493 26.6749 33.8481C26.6749 32.217 25.3637 30.8921 23.7378 30.8701L18.196 25.3283L19.5931 23.9313L21.6345 25.9727C22.4985 26.8368 23.8994 26.8368 24.7634 25.9727C25.6274 25.1087 25.6274 23.7079 24.7634 22.8439L21.2023 19.2827C20.698 18.7784 20.0108 18.5685 19.3542 18.6529C18.8506 18.6945 18.3586 18.908 17.9733 19.2933L15.0672 22.1995ZM24.1595 48.3496C23.5851 48.356 23.0087 48.14 22.5704 47.7017L7.64808 32.7794C7.04898 32.1803 6.86529 31.3231 7.09701 30.5658C7.19644 30.214 7.38458 29.882 7.66143 29.6052L11.9383 25.3283L7.64808 21.0381C7.20931 20.5994 6.99336 20.0221 7.00023 19.4471C6.99274 18.8713 7.20868 18.2931 7.64805 17.8537L22.8538 2.64799C23.3566 2.14517 24.0412 1.93497 24.6961 2.0174C25.1785 2.07061 25.6467 2.28214 26.0165 2.65199L40.9388 17.5743C41.8028 18.4383 41.8028 19.8391 40.9388 20.7032C40.8723 20.7697 40.8026 20.8311 40.7302 20.8874C40.6941 20.9292 40.6562 20.9701 40.6165 21.0098L36.3515 25.2748C36.3235 25.3028 36.2949 25.33 36.2657 25.3562L40.6047 29.6952C40.7897 29.8802 40.9351 30.0899 41.0409 30.3136C41.4397 31.1378 41.2972 32.1581 40.6133 32.842L25.7535 47.7018C25.314 48.1413 24.7355 48.3572 24.1595 48.3496Z" fill="#00C2FF"/>
<circle cx="23.7017" cy="33.8492" r="1.20188" transform="rotate(-44.9216 23.7017 33.8492)" fill="black" stroke="white"/>
<circle cx="24.5546" cy="16.4906" r="1.20188" transform="rotate(-44.9216 24.5546 16.4906)" fill="white" stroke="black"/>
<path d="M51.1113 20.0392C51.1113 20.8275 51.4038 21.3997 51.9887 21.7557C52.5735 22.188 53.8196 22.633 55.7268 23.0907C57.7357 23.5739 59.1979 24.2351 60.1134 25.0742C61.0543 25.9134 61.5247 27.1213 61.5247 28.6979C61.5247 30.3509 60.9017 31.6859 59.6557 32.7031C58.4351 33.7203 56.833 34.2289 54.8495 34.2289C51.9759 34.2289 49.3821 33.2117 47.068 31.1773L49.0515 28.8124C50.9842 30.4653 52.9423 31.2918 54.9258 31.2918C55.9175 31.2918 56.7186 31.0756 57.3289 30.6433C57.9392 30.1856 58.2443 29.6007 58.2443 28.8887C58.2443 28.1766 57.9646 27.6172 57.4052 27.2103C56.8711 26.8034 55.9048 26.4347 54.5062 26.1041C52.0904 25.5447 50.412 24.8835 49.4711 24.1206C48.3777 23.2814 47.8309 21.9973 47.8309 20.268C47.8309 18.5897 48.4412 17.2801 49.6619 16.3392C50.8825 15.3729 52.4464 14.8897 54.3536 14.8897C56.922 14.8897 59.1217 15.6399 60.9526 17.1402L59.2742 19.5052C58.7148 18.9966 57.9646 18.5897 57.0237 18.2845C56.0828 17.954 55.1546 17.7887 54.2392 17.7887C53.2983 17.7887 52.5354 17.9921 51.9505 18.399C51.3911 18.7804 51.1113 19.3271 51.1113 20.0392ZM66.7687 29.766L64.8996 34H61.5429L69.7821 15.3474H73.1388L81.3398 34H77.9831L76.114 29.766H66.7687ZM74.8553 26.8289L71.4604 19.1619L68.0656 26.8289H74.8553ZM93.5136 27.2103L98.3961 34H94.3909L89.9281 27.7062H85.8085V34H82.6425V15.3474H89.5848C92.4074 15.3474 94.4291 15.8306 95.6497 16.7969C96.8958 17.7378 97.5188 19.2763 97.5188 21.4124C97.5188 24.4893 96.1837 26.422 93.5136 27.2103ZM89.6992 24.8835C91.4538 24.8835 92.6617 24.6165 93.3229 24.0825C93.9841 23.5485 94.3147 22.6457 94.3147 21.3742C94.3147 20.1536 93.9841 19.3271 93.3229 18.8948C92.6617 18.4371 91.4793 18.2082 89.7755 18.2082H85.8085V24.8835H89.6992ZM107.195 15.3474C109.992 15.3474 112.04 15.8942 113.336 16.9876C114.659 18.0557 115.32 19.7213 115.32 21.9845C115.32 24.2223 114.659 25.8753 113.336 26.9433C112.014 27.9859 109.98 28.5072 107.233 28.5072H103.953V34H100.787V15.3474H107.195ZM107.577 25.6845C109.255 25.6845 110.425 25.3667 111.086 24.7309C111.773 24.0952 112.116 23.0907 112.116 21.7175C112.116 20.446 111.722 19.5433 110.933 19.0093C110.145 18.4753 108.874 18.2082 107.119 18.2082H103.953V25.6845H107.577ZM117.775 15.3474H120.941V34H117.775V15.3474ZM138.79 15.3474H141.917V34H138.523L127.957 20.3825V34H124.791V15.3474H127.957L138.79 29.2701V15.3474Z" fill="black"/>
<path d="M64.2434 40.6041C64.2434 40.7959 64.3146 40.9351 64.4568 41.0216C64.5991 41.1268 64.9022 41.2351 65.3661 41.3464C65.8548 41.4639 66.2104 41.6247 66.4331 41.8289C66.662 42.033 66.7764 42.3268 66.7764 42.7103C66.7764 43.1124 66.6249 43.4371 66.3218 43.6845C66.0249 43.932 65.6352 44.0557 65.1527 44.0557C64.4537 44.0557 63.8228 43.8082 63.2599 43.3134L63.7424 42.7381C64.2125 43.1402 64.6888 43.3412 65.1713 43.3412C65.4125 43.3412 65.6074 43.2887 65.7558 43.1835C65.9043 43.0722 65.9785 42.9299 65.9785 42.7567C65.9785 42.5835 65.9104 42.4474 65.7744 42.3485C65.6445 42.2495 65.4094 42.1598 65.0692 42.0794C64.4816 41.9433 64.0733 41.7825 63.8445 41.5969C63.5785 41.3928 63.4455 41.0804 63.4455 40.6598C63.4455 40.2515 63.594 39.933 63.8909 39.7041C64.1878 39.4691 64.5682 39.3515 65.0321 39.3515C65.6568 39.3515 66.1919 39.534 66.6373 39.899L66.229 40.4742C66.0929 40.3505 65.9104 40.2515 65.6816 40.1773C65.4527 40.0969 65.2269 40.0567 65.0043 40.0567C64.7754 40.0567 64.5898 40.1062 64.4476 40.2052C64.3115 40.2979 64.2434 40.4309 64.2434 40.6041ZM71.1885 39.4629V40.1773H68.7669V41.3835H70.938V42.0608H68.7669V43.2763H71.2627V44H67.9968V39.4629H71.1885ZM75.6572 41.7918H76.4181V43.3412C75.9913 43.8175 75.3789 44.0557 74.581 44.0557C73.9067 44.0557 73.3438 43.833 72.8923 43.3876C72.4408 42.9423 72.215 42.3856 72.215 41.7175C72.215 41.0495 72.4438 40.4897 72.9016 40.0381C73.3655 39.5804 73.9253 39.3515 74.581 39.3515C75.2366 39.3515 75.781 39.5402 76.2139 39.9175L75.8057 40.5021C75.4902 40.2361 75.1036 40.1031 74.6459 40.1031C74.182 40.1031 73.7923 40.2546 73.4768 40.5577C73.1676 40.8546 73.0129 41.2412 73.0129 41.7175C73.0129 42.1938 73.1614 42.5804 73.4583 42.8773C73.7614 43.168 74.1356 43.3134 74.581 43.3134C75.0139 43.3134 75.3727 43.2206 75.6572 43.0351V41.7918ZM79.5687 43.3227C79.9213 43.3227 80.1996 43.2021 80.4038 42.9608C80.6141 42.7196 80.7192 42.3918 80.7192 41.9773V39.4629H81.4893V42.0052C81.4893 42.6485 81.313 43.1495 80.9605 43.5082C80.6079 43.867 80.144 44.0464 79.5687 44.0464C78.9935 44.0464 78.5295 43.867 78.177 43.5082C77.8244 43.1495 77.6481 42.6485 77.6481 42.0052V39.4629H78.4089V41.9773C78.4089 42.3979 78.5141 42.7258 78.7244 42.9608C78.9285 43.2021 79.2099 43.3227 79.5687 43.3227ZM85.6103 42.3485L86.7979 44H85.8237L84.7381 42.4691H83.7361V44H82.9659V39.4629H84.6546C85.3412 39.4629 85.833 39.5804 86.1299 39.8155C86.433 40.0443 86.5845 40.4186 86.5845 40.9381C86.5845 41.6866 86.2598 42.1567 85.6103 42.3485ZM84.6824 41.7825C85.1092 41.7825 85.4031 41.7175 85.5639 41.5876C85.7247 41.4577 85.8051 41.2381 85.8051 40.9289C85.8051 40.632 85.7247 40.4309 85.5639 40.3258C85.4031 40.2144 85.1154 40.1588 84.701 40.1588H83.7361V41.7825H84.6824ZM87.9645 39.4629H88.7346V44H87.9645V39.4629ZM91.8147 39.4629C92.625 39.4629 93.2498 39.6608 93.6889 40.0567C94.1281 40.4464 94.3477 40.9969 94.3477 41.7082C94.3477 42.432 94.1312 42.9948 93.6982 43.3969C93.2652 43.799 92.6188 44 91.759 44H90.2559V39.4629H91.8147ZM91.7869 40.168H91.0261V43.2763H91.8704C92.4271 43.2763 92.8508 43.1464 93.1415 42.8866C93.4322 42.6206 93.5776 42.234 93.5776 41.7268C93.5776 40.6876 92.9807 40.168 91.7869 40.168ZM96.2374 42.9701L95.7828 44H94.9663L96.9704 39.4629H97.7869L99.7818 44H98.9653L98.5106 42.9701H96.2374ZM98.2045 42.2557L97.3787 40.3907L96.5529 42.2557H98.2045ZM102.242 39.4629C103.053 39.4629 103.677 39.6608 104.117 40.0567C104.556 40.4464 104.775 40.9969 104.775 41.7082C104.775 42.432 104.559 42.9948 104.126 43.3969C103.693 43.799 103.047 44 102.187 44H100.684V39.4629H102.242ZM102.215 40.168H101.454V43.2763H102.298C102.855 43.2763 103.278 43.1464 103.569 42.8866C103.86 42.6206 104.005 42.234 104.005 41.7268C104.005 40.6876 103.408 40.168 102.215 40.168ZM109.861 44H109.081V42.2093L107.393 39.4629H108.237L109.471 41.5227L110.714 39.4629H111.549L109.861 42.2093V44ZM115.875 42.7289L116.886 39.4629H117.573L118.584 42.7289L119.725 39.4629H120.551L118.964 44H118.204L117.257 40.8918H117.201L116.246 44H115.485L113.898 39.4629H114.724L115.875 42.7289ZM124.728 39.4629V40.1773H122.307V41.3835H124.478V42.0608H122.307V43.2763H124.803V44H121.537V39.4629H124.728ZM126.052 44V39.4629H127.815C128.452 39.4629 128.885 39.599 129.114 39.8711C129.318 40.1 129.42 40.3629 129.42 40.6598C129.42 41.0186 129.308 41.2845 129.086 41.4577C129.011 41.5134 128.9 41.5753 128.752 41.6433C129.036 41.7052 129.259 41.832 129.42 42.0237C129.587 42.2155 129.67 42.4536 129.67 42.7381C129.67 43.0969 129.54 43.3969 129.281 43.6381C129.027 43.8794 128.613 44 128.037 44H126.052ZM126.822 41.3464H127.787C128.343 41.3464 128.622 41.1577 128.622 40.7804C128.622 40.5639 128.554 40.4093 128.418 40.3165C128.288 40.2175 128.081 40.168 127.796 40.168H126.822V41.3464ZM126.822 43.2948H128.019C128.316 43.2948 128.535 43.2485 128.677 43.1557C128.82 43.0567 128.891 42.8897 128.891 42.6546C128.891 42.2526 128.569 42.0515 127.926 42.0515H126.822V43.2948Z" fill="black"/>
</g>
<defs>
<clipPath id="clip0_68_3">
<rect width="150" height="50" fill="white"/>
</clipPath>
</defs>
</svg>
