<svg width="150" height="50" viewBox="0 0 150 50" fill="none" xmlns="http://www.w3.org/2000/svg">
<path fill-rule="evenodd" clip-rule="evenodd" d="M15.0671 22.1995L12.3136 19.4459L24.4331 7.32639L36.2308 19.1241L33.2158 22.1392C33.1878 22.1672 33.1606 22.1958 33.1344 22.225L27.5251 16.6157C27.527 16.5719 27.528 16.528 27.528 16.4837C27.528 14.8389 26.1946 13.5055 24.5497 13.5055C22.9049 13.5055 21.5714 14.8389 21.5714 16.4837C21.5714 17.9675 22.6564 19.1978 24.0763 19.4246L35.9246 31.2729L34.6003 32.5972L31.3685 29.3655C30.5045 28.5015 29.1037 28.5015 28.2397 29.3655C27.3756 30.2295 27.3756 31.6304 28.2397 32.4944L31.4714 35.7261L24.1619 43.0356L12.3253 31.199L15.0671 28.4572L20.7306 34.1207C20.8682 35.6378 22.1436 36.8264 23.6965 36.8264C25.3414 36.8264 26.6748 35.493 26.6748 33.8481C26.6748 32.217 25.3636 30.8922 23.7378 30.8701L18.196 25.3283L19.593 23.9313L21.6345 25.9728C22.4985 26.8368 23.8994 26.8368 24.7634 25.9728C25.6274 25.1087 25.6274 23.7079 24.7634 22.8439L21.2023 19.2828C20.698 18.7785 20.0108 18.5685 19.3542 18.6529C18.8506 18.6946 18.3586 18.908 17.9733 19.2933L15.0671 22.1995ZM24.1595 48.3496C23.5851 48.356 23.0086 48.14 22.5703 47.7017L7.64804 32.7794C7.04894 32.1804 6.86525 31.3232 7.09697 30.5658C7.1964 30.214 7.38454 29.882 7.66139 29.6052L11.9382 25.3283L7.64804 21.0381C7.20927 20.5994 6.99332 20.0222 7.00019 19.4471C6.9927 18.8713 7.20864 18.2931 7.64801 17.8537L22.8537 2.64801C23.3566 2.14518 24.0412 1.93499 24.696 2.01741C25.1784 2.07063 25.6466 2.28216 26.0165 2.65201L40.9388 17.5743C41.8028 18.4383 41.8028 19.8392 40.9388 20.7032C40.8723 20.7697 40.8025 20.8311 40.7302 20.8874C40.6941 20.9293 40.6562 20.9701 40.6165 21.0098L36.3515 25.2748C36.3234 25.3029 36.2948 25.33 36.2657 25.3562L40.6047 29.6952C40.7897 29.8803 40.9351 30.0899 41.0409 30.3137C41.4397 31.1378 41.2972 32.1581 40.6132 32.842L25.7534 47.7018C25.3139 48.1413 24.7355 48.3573 24.1595 48.3496Z" fill="url(#paint0_linear_68_3)"/>
<circle cx="23.7017" cy="33.8492" r="1.20188" transform="rotate(-44.9216 23.7017 33.8492)" fill="black" stroke="white"/>
<circle cx="24.5545" cy="16.4906" r="1.20188" transform="rotate(-44.9216 24.5545 16.4906)" fill="white" stroke="black"/>
<path d="M51.1113 16.0392C51.1113 16.8275 51.4038 17.3997 51.9887 17.7557C52.5735 18.188 53.8196 18.633 55.7268 19.0907C57.7357 19.5739 59.1979 20.2351 60.1134 21.0742C61.0543 21.9134 61.5247 23.1213 61.5247 24.6979C61.5247 26.3509 60.9017 27.6859 59.6557 28.7031C58.4351 29.7203 56.833 30.2289 54.8495 30.2289C51.9759 30.2289 49.3821 29.2117 47.068 27.1773L49.0515 24.8124C50.9842 26.4653 52.9423 27.2918 54.9258 27.2918C55.9175 27.2918 56.7186 27.0756 57.3289 26.6433C57.9392 26.1856 58.2443 25.6007 58.2443 24.8887C58.2443 24.1766 57.9646 23.6172 57.4052 23.2103C56.8711 22.8034 55.9048 22.4347 54.5062 22.1041C52.0904 21.5447 50.412 20.8835 49.4711 20.1206C48.3777 19.2814 47.8309 17.9973 47.8309 16.268C47.8309 14.5897 48.4412 13.2801 49.6619 12.3392C50.8825 11.3729 52.4464 10.8897 54.3536 10.8897C56.922 10.8897 59.1217 11.6399 60.9526 13.1402L59.2742 15.5052C58.7148 14.9966 57.9646 14.5897 57.0237 14.2845C56.0828 13.954 55.1546 13.7887 54.2392 13.7887C53.2983 13.7887 52.5354 13.9921 51.9505 14.399C51.3911 14.7804 51.1113 15.3271 51.1113 16.0392ZM66.7687 25.766L64.8996 30H61.5429L69.7821 11.3474H73.1388L81.3398 30H77.9831L76.114 25.766H66.7687ZM74.8553 22.8289L71.4604 15.1619L68.0656 22.8289H74.8553ZM93.5136 23.2103L98.3961 30H94.3909L89.9281 23.7062H85.8085V30H82.6425V11.3474H89.5848C92.4074 11.3474 94.4291 11.8306 95.6497 12.7969C96.8958 13.7378 97.5188 15.2763 97.5188 17.4124C97.5188 20.4893 96.1837 22.422 93.5136 23.2103ZM89.6992 20.8835C91.4538 20.8835 92.6617 20.6165 93.3229 20.0825C93.9841 19.5485 94.3147 18.6457 94.3147 17.3742C94.3147 16.1536 93.9841 15.3271 93.3229 14.8948C92.6617 14.4371 91.4793 14.2082 89.7755 14.2082H85.8085V20.8835H89.6992ZM107.195 11.3474C109.992 11.3474 112.04 11.8942 113.336 12.9876C114.659 14.0557 115.32 15.7213 115.32 17.9845C115.32 20.2223 114.659 21.8753 113.336 22.9433C112.014 23.9859 109.98 24.5072 107.233 24.5072H103.953V30H100.787V11.3474H107.195ZM107.577 21.6845C109.255 21.6845 110.425 21.3667 111.086 20.7309C111.773 20.0952 112.116 19.0907 112.116 17.7175C112.116 16.446 111.722 15.5433 110.933 15.0093C110.145 14.4753 108.874 14.2082 107.119 14.2082H103.953V21.6845H107.577ZM117.775 11.3474H120.941V30H117.775V11.3474ZM138.79 11.3474H141.917V30H138.523L127.957 16.3825V30H124.791V11.3474H127.957L138.79 25.2701V11.3474Z" fill="black"/>
<path d="M63.2434 34.6041C63.2434 34.7959 63.3146 34.9351 63.4568 35.0216C63.5991 35.1268 63.9022 35.2351 64.3661 35.3464C64.8548 35.4639 65.2104 35.6247 65.4331 35.8289C65.662 36.033 65.7764 36.3268 65.7764 36.7103C65.7764 37.1124 65.6249 37.4371 65.3218 37.6845C65.0249 37.932 64.6352 38.0557 64.1527 38.0557C63.4537 38.0557 62.8228 37.8082 62.2599 37.3134L62.7424 36.7381C63.2125 37.1402 63.6888 37.3412 64.1713 37.3412C64.4125 37.3412 64.6074 37.2887 64.7558 37.1835C64.9043 37.0722 64.9785 36.9299 64.9785 36.7567C64.9785 36.5835 64.9104 36.4474 64.7744 36.3485C64.6445 36.2495 64.4094 36.1598 64.0692 36.0794C63.4816 35.9433 63.0733 35.7825 62.8445 35.5969C62.5785 35.3928 62.4455 35.0804 62.4455 34.6598C62.4455 34.2515 62.594 33.933 62.8909 33.7041C63.1878 33.4691 63.5682 33.3515 64.0321 33.3515C64.6568 33.3515 65.1919 33.534 65.6373 33.899L65.229 34.4742C65.0929 34.3505 64.9104 34.2515 64.6816 34.1773C64.4527 34.0969 64.2269 34.0567 64.0043 34.0567C63.7754 34.0567 63.5898 34.1062 63.4476 34.2052C63.3115 34.2979 63.2434 34.4309 63.2434 34.6041ZM70.1885 33.4629V34.1773H67.7669V35.3835H69.938V36.0608H67.7669V37.2763H70.2627V38H66.9968V33.4629H70.1885ZM74.6572 35.7918H75.4181V37.3412C74.9913 37.8175 74.3789 38.0557 73.581 38.0557C72.9067 38.0557 72.3438 37.833 71.8923 37.3876C71.4408 36.9423 71.215 36.3856 71.215 35.7175C71.215 35.0495 71.4438 34.4897 71.9016 34.0381C72.3655 33.5804 72.9253 33.3515 73.581 33.3515C74.2366 33.3515 74.781 33.5402 75.2139 33.9175L74.8057 34.5021C74.4902 34.2361 74.1036 34.1031 73.6459 34.1031C73.182 34.1031 72.7923 34.2546 72.4768 34.5577C72.1676 34.8546 72.0129 35.2412 72.0129 35.7175C72.0129 36.1938 72.1614 36.5804 72.4583 36.8773C72.7614 37.168 73.1356 37.3134 73.581 37.3134C74.0139 37.3134 74.3727 37.2206 74.6572 37.0351V35.7918ZM78.5687 37.3227C78.9213 37.3227 79.1996 37.2021 79.4038 36.9608C79.6141 36.7196 79.7192 36.3918 79.7192 35.9773V33.4629H80.4893V36.0052C80.4893 36.6485 80.313 37.1495 79.9605 37.5082C79.6079 37.867 79.144 38.0464 78.5687 38.0464C77.9935 38.0464 77.5295 37.867 77.177 37.5082C76.8244 37.1495 76.6481 36.6485 76.6481 36.0052V33.4629H77.4089V35.9773C77.4089 36.3979 77.5141 36.7258 77.7244 36.9608C77.9285 37.2021 78.2099 37.3227 78.5687 37.3227ZM84.6103 36.3485L85.7979 38H84.8237L83.7381 36.4691H82.7361V38H81.9659V33.4629H83.6546C84.3412 33.4629 84.833 33.5804 85.1299 33.8155C85.433 34.0443 85.5845 34.4186 85.5845 34.9381C85.5845 35.6866 85.2598 36.1567 84.6103 36.3485ZM83.6824 35.7825C84.1092 35.7825 84.4031 35.7175 84.5639 35.5876C84.7247 35.4577 84.8051 35.2381 84.8051 34.9289C84.8051 34.632 84.7247 34.4309 84.5639 34.3258C84.4031 34.2144 84.1154 34.1588 83.701 34.1588H82.7361V35.7825H83.6824ZM86.9645 33.4629H87.7346V38H86.9645V33.4629ZM90.8147 33.4629C91.625 33.4629 92.2498 33.6608 92.6889 34.0567C93.1281 34.4464 93.3477 34.9969 93.3477 35.7082C93.3477 36.432 93.1312 36.9948 92.6982 37.3969C92.2652 37.799 91.6188 38 90.759 38H89.2559V33.4629H90.8147ZM90.7869 34.168H90.0261V37.2763H90.8704C91.4271 37.2763 91.8508 37.1464 92.1415 36.8866C92.4322 36.6206 92.5776 36.234 92.5776 35.7268C92.5776 34.6876 91.9807 34.168 90.7869 34.168ZM95.2374 36.9701L94.7828 38H93.9663L95.9704 33.4629H96.7869L98.7818 38H97.9653L97.5106 36.9701H95.2374ZM97.2045 36.2557L96.3787 34.3907L95.5529 36.2557H97.2045ZM101.242 33.4629C102.053 33.4629 102.677 33.6608 103.117 34.0567C103.556 34.4464 103.775 34.9969 103.775 35.7082C103.775 36.432 103.559 36.9948 103.126 37.3969C102.693 37.799 102.047 38 101.187 38H99.6836V33.4629H101.242ZM101.215 34.168H100.454V37.2763H101.298C101.855 37.2763 102.278 37.1464 102.569 36.8866C102.86 36.6206 103.005 36.234 103.005 35.7268C103.005 34.6876 102.408 34.168 101.215 34.168ZM108.861 38H108.081V36.2093L106.393 33.4629H107.237L108.471 35.5227L109.714 33.4629H110.549L108.861 36.2093V38ZM114.875 36.7289L115.886 33.4629H116.573L117.584 36.7289L118.725 33.4629H119.551L117.964 38H117.204L116.257 34.8918H116.201L115.246 38H114.485L112.898 33.4629H113.724L114.875 36.7289ZM123.728 33.4629V34.1773H121.307V35.3835H123.478V36.0608H121.307V37.2763H123.803V38H120.537V33.4629H123.728ZM125.052 38V33.4629H126.815C127.452 33.4629 127.885 33.599 128.114 33.8711C128.318 34.1 128.42 34.3629 128.42 34.6598C128.42 35.0186 128.308 35.2845 128.086 35.4577C128.011 35.5134 127.9 35.5753 127.752 35.6433C128.036 35.7052 128.259 35.832 128.42 36.0237C128.587 36.2155 128.67 36.4536 128.67 36.7381C128.67 37.0969 128.54 37.3969 128.281 37.6381C128.027 37.8794 127.613 38 127.037 38H125.052ZM125.822 35.3464H126.787C127.343 35.3464 127.622 35.1577 127.622 34.7804C127.622 34.5639 127.554 34.4093 127.418 34.3165C127.288 34.2175 127.081 34.168 126.796 34.168H125.822V35.3464ZM125.822 37.2948H127.019C127.316 37.2948 127.535 37.2485 127.677 37.1557C127.82 37.0567 127.891 36.8897 127.891 36.6546C127.891 36.2526 127.569 36.0515 126.926 36.0515H125.822V37.2948Z" fill="black"/>
<defs>
<linearGradient id="paint0_linear_68_3" x1="24.2935" y1="2" x2="24.2935" y2="48.35" gradientUnits="userSpaceOnUse">
<stop offset="0.459871" stop-color="#00C2FF"/>
<stop offset="1" stop-color="#004BA8"/>
</linearGradient>
</defs>
</svg>
